<svg id="eMbfogtKcru1" xmlns="http://www.w3.org/2000/svg" xmlns:xlink="http://www.w3.org/1999/xlink" viewBox="0 0 325 225" shape-rendering="geometricPrecision" text-rendering="geometricPrecision"><ellipse rx="87.514863" ry="87.894506" transform="matrix(1.05125 0 0 1.04688 108.289545 112.00863)" fill="#fff" stroke-width="0"/><g transform="matrix(.1 0 0-.1 0 377)"><g transform="translate(-245.094845 289.15466)"><path d="M1225,3409c-114-11-223-42-331-93-122-58-193-106-283-191-102-96-164-181-227-310-89-182-123-370-104-561c25-240,119-447,282-620c262-277,625-393,993-318c84,17,134,34,238,82l77,35l78-36c337-156,707-135,1020,59c108,67,283,244,343,349c185,317,204,674,55,991-58,121-114,203-204,296-323,333-819,417-1234,207l-58-29-78,39c-103,52-234,89-357,101-55,5-107,9-115,8-8,0-51-4-95-9Zm215-190c358-44,648-298,742-649c30-116,31-318,0-432-86-319-328-556-649-635-105-26-305-23-413,6-422,111-699,512-650,940c34,298,211,552,475,681c171,84,321,111,495,89Z" fill="#a3a8bd"/><path d="M1365,2708c-2-7-36-148-75-312-75-316-75-315-22-316c14,0,26,8,32,23c5,12,39,150,76,307s69,291,71,298c4,8-7,12-36,12-24,0-43-5-46-12Z" fill="#a3a8bd"/><path d="M1036,2451c-67-67-67-59,8-138c37-39,45-43,89-43h49l-46,54c-25,29-46,58-46,65s20,34,45,60s45,51,45,55c0,3-19,6-43,6-39,0-48-5-101-59Z" fill="#a3a8bd"/><path d="M1480,2502c0-5,14-21,31-38c17-16,39-41,50-56l19-26-51-56-51-56h55c54,0,55,1,101,54c25,30,46,58,46,63s-23,35-51,66c-49,55-53,57-100,57-27,0-49-4-49-8Z" fill="#a3a8bd"/></g></g></svg>
