<svg id="ee2OWsTQE3V1" xmlns="http://www.w3.org/2000/svg" xmlns:xlink="http://www.w3.org/1999/xlink" viewBox="0 0 400 400" shape-rendering="geometricPrecision" text-rendering="geometricPrecision"><g transform="translate(-218.408403-2.96482)"><path d="M220.4084,202.96482c0-109.35238,88.64762-198,198-198s198,88.64762,198,198-88.64762,198-198,198-198-88.64762-198-198Zm168.547-98.84533c-12.744429,1.598648-12.681666,11.91972-10.99,17.047c1.26254,3.826639,2.711656,7.138905,7.75,11.498c44.621064,38.605434,46.287,105.401-.166,142.36-9.154,7.283-10.528,16.933-3.454,24.262c8.52,8.826,18.048,5.722,34.793-11.338l4.867-4.958l22.8-.117c20.284-.105,23.023-.193,24.818-.804c13.339-4.532,14.208-22.527,1.382-28.627l-2.2-1.047-13.324-.143c-14.357-.155-14.372-.157-13.347-2.213c1.271-2.549,3.795-9.955,5.132-15.055c5.753-21.954,5.208-44.496-1.646-68.018-.641-2.2-2.855-8.155-3.436-9.239-1.224-2.287-1.149-2.301,13.35-2.437l13.291-.124l2.659-1.31c11.565-5.696,11.519-21.95-.079-27.615l-2.2-1.075-23.484-.2-23.483-.2c0,0-4.021376-3.953803-5.717-5.676-7.23307-7.346423-18.83778-16.034499-27.316-14.971Zm-13,72.077c-21.232,2.655-26.254,32.838-7.106,42.709c21.449,11.057,42.985-15.113,28.203-34.272-3.961-5.135-13.879-9.915-18.287-8.814l-2.81.377Z" transform="translate(.000003 0)" fill="#a3a8bd" stroke-width="0"/></g></svg>
